<?xml version="1.0" encoding="UTF-8" standalone="no"?>
<!DOCTYPE svg PUBLIC "-//W3C//DTD SVG 1.1//EN"
 "http://www.w3.org/Graphics/SVG/1.1/DTD/svg11.dtd">
<!-- Generated by graphviz version 2.38.0 (20140413.2041)
 -->
<!-- Title: G Pages: 1 -->
<svg width="104pt" height="204pt"
 viewBox="0.00 0.00 104.00 204.00" xmlns="http://www.w3.org/2000/svg" xmlns:xlink="http://www.w3.org/1999/xlink">
<g id="graph0" class="graph" transform="scale(1 1) rotate(0) translate(4 200)">
<title>G</title>
<polygon fill="white" stroke="none" points="-4,4 -4,-200 100,-200 100,4 -4,4"/>
<g id="clust1" class="cluster"><title>cluster_Global</title>
<path fill="none" stroke="gray" d="M20,-8C20,-8 76,-8 76,-8 82,-8 88,-14 88,-20 88,-20 88,-176 88,-176 88,-182 82,-188 76,-188 76,-188 20,-188 20,-188 14,-188 8,-182 8,-176 8,-176 8,-20 8,-20 8,-14 14,-8 20,-8"/>
<text text-anchor="middle" x="48" y="-175.2" font-family="Times,serif" font-size="11.00" fill="gray">Global</text>
</g>
<!-- \\Pion -->
<g id="node1" class="node"><title>\\Pion</title>
<polygon fill="none" stroke="black" points="75,-160 21,-160 21,-124 75,-124 75,-160"/>
<text text-anchor="middle" x="48" y="-139.2" font-family="Courier,monospace" font-size="11.00">Pion</text>
</g>
<!-- \\Joueur -->
<g id="node2" class="node"><title>\\Joueur</title>
<polygon fill="none" stroke="black" points="76.5,-106 19.5,-106 19.5,-70 76.5,-70 76.5,-106"/>
<text text-anchor="middle" x="48" y="-85.2" font-family="Courier,monospace" font-size="11.00">Joueur</text>
</g>
<!-- \\Plateau -->
<g id="node3" class="node"><title>\\Plateau</title>
<polygon fill="none" stroke="black" points="80,-52 16,-52 16,-16 80,-16 80,-52"/>
<text text-anchor="middle" x="48" y="-31.2" font-family="Courier,monospace" font-size="11.00">Plateau</text>
</g>
</g>
</svg>
